<mxfile host="app.diagrams.net" agent="Mozilla/5.0 (Windows NT 10.0; Win64; x64) AppleWebKit/537.36 (KHTML, like Gecko) Chrome/129.0.0.0 Safari/537.36 Edg/129.0.0.0" version="24.7.17">
  <diagram name="Page-1" id="CqJRSgg5RnZotLxMXmSK">
    <mxGraphModel dx="2049" dy="1123" grid="1" gridSize="10" guides="1" tooltips="1" connect="1" arrows="1" fold="1" page="1" pageScale="1" pageWidth="827" pageHeight="1169" math="0" shadow="0">
      <root>
        <mxCell id="0" />
        <mxCell id="1" parent="0" />
        <mxCell id="sfpBSsKrv9r2uao3jg4c-572" value="" style="rounded=0;whiteSpace=wrap;html=1;" parent="1" vertex="1">
          <mxGeometry x="477.5" y="600" width="852.5" height="1030" as="geometry" />
        </mxCell>
        <mxCell id="sfpBSsKrv9r2uao3jg4c-474" style="rounded=0;orthogonalLoop=1;jettySize=auto;html=1;exitX=1;exitY=0.3333333333333333;exitDx=0;exitDy=0;exitPerimeter=0;entryX=0;entryY=0.5;entryDx=0;entryDy=0;" parent="1" source="sfpBSsKrv9r2uao3jg4c-475" target="sfpBSsKrv9r2uao3jg4c-500" edge="1">
          <mxGeometry relative="1" as="geometry" />
        </mxCell>
        <mxCell id="sfpBSsKrv9r2uao3jg4c-475" value="Гость" style="shape=umlActor;verticalLabelPosition=bottom;verticalAlign=top;html=1;outlineConnect=0;" parent="1" vertex="1">
          <mxGeometry x="350" y="1490" width="30" height="60" as="geometry" />
        </mxCell>
        <mxCell id="sfpBSsKrv9r2uao3jg4c-476" style="rounded=0;orthogonalLoop=1;jettySize=auto;html=1;entryX=1;entryY=0.5;entryDx=0;entryDy=0;" parent="1" target="sfpBSsKrv9r2uao3jg4c-529" edge="1">
          <mxGeometry relative="1" as="geometry">
            <mxPoint x="1410" y="970" as="sourcePoint" />
            <mxPoint x="1260" y="1025" as="targetPoint" />
          </mxGeometry>
        </mxCell>
        <mxCell id="sfpBSsKrv9r2uao3jg4c-477" style="rounded=0;orthogonalLoop=1;jettySize=auto;html=1;entryX=1;entryY=0.5;entryDx=0;entryDy=0;" parent="1" target="sfpBSsKrv9r2uao3jg4c-527" edge="1">
          <mxGeometry relative="1" as="geometry">
            <mxPoint x="1410" y="970" as="sourcePoint" />
            <mxPoint x="1260" y="885" as="targetPoint" />
          </mxGeometry>
        </mxCell>
        <mxCell id="sfpBSsKrv9r2uao3jg4c-478" style="rounded=0;orthogonalLoop=1;jettySize=auto;html=1;entryX=1;entryY=0.5;entryDx=0;entryDy=0;exitX=0;exitY=0.3333333333333333;exitDx=0;exitDy=0;exitPerimeter=0;" parent="1" source="sfpBSsKrv9r2uao3jg4c-528" edge="1">
          <mxGeometry relative="1" as="geometry">
            <mxPoint x="1410" y="970" as="sourcePoint" />
            <mxPoint x="1260" y="955" as="targetPoint" />
          </mxGeometry>
        </mxCell>
        <mxCell id="sfpBSsKrv9r2uao3jg4c-479" style="rounded=0;orthogonalLoop=1;jettySize=auto;html=1;entryX=1;entryY=0.5;entryDx=0;entryDy=0;" parent="1" target="sfpBSsKrv9r2uao3jg4c-524" edge="1">
          <mxGeometry relative="1" as="geometry">
            <mxPoint x="1410" y="970" as="sourcePoint" />
            <mxPoint x="1260" y="815" as="targetPoint" />
          </mxGeometry>
        </mxCell>
        <mxCell id="sfpBSsKrv9r2uao3jg4c-480" style="rounded=0;orthogonalLoop=1;jettySize=auto;html=1;entryX=1;entryY=0.5;entryDx=0;entryDy=0;exitX=0;exitY=0.3333333333333333;exitDx=0;exitDy=0;exitPerimeter=0;" parent="1" source="sfpBSsKrv9r2uao3jg4c-516" target="sfpBSsKrv9r2uao3jg4c-501" edge="1">
          <mxGeometry relative="1" as="geometry">
            <mxPoint x="1050" y="1090" as="sourcePoint" />
          </mxGeometry>
        </mxCell>
        <mxCell id="sfpBSsKrv9r2uao3jg4c-482" style="rounded=0;orthogonalLoop=1;jettySize=auto;html=1;entryX=0;entryY=0.5;entryDx=0;entryDy=0;exitX=1;exitY=0.3333333333333333;exitDx=0;exitDy=0;exitPerimeter=0;" parent="1" source="sfpBSsKrv9r2uao3jg4c-490" target="sfpBSsKrv9r2uao3jg4c-491" edge="1">
          <mxGeometry relative="1" as="geometry" />
        </mxCell>
        <mxCell id="sfpBSsKrv9r2uao3jg4c-483" style="rounded=0;orthogonalLoop=1;jettySize=auto;html=1;entryX=0;entryY=0.5;entryDx=0;entryDy=0;exitX=1;exitY=0.3333333333333333;exitDx=0;exitDy=0;exitPerimeter=0;" parent="1" source="sfpBSsKrv9r2uao3jg4c-490" target="sfpBSsKrv9r2uao3jg4c-492" edge="1">
          <mxGeometry relative="1" as="geometry" />
        </mxCell>
        <mxCell id="sfpBSsKrv9r2uao3jg4c-484" style="rounded=0;orthogonalLoop=1;jettySize=auto;html=1;entryX=0;entryY=0.5;entryDx=0;entryDy=0;exitX=1;exitY=0.3333333333333333;exitDx=0;exitDy=0;exitPerimeter=0;" parent="1" source="sfpBSsKrv9r2uao3jg4c-490" target="sfpBSsKrv9r2uao3jg4c-493" edge="1">
          <mxGeometry relative="1" as="geometry" />
        </mxCell>
        <mxCell id="sfpBSsKrv9r2uao3jg4c-485" style="rounded=0;orthogonalLoop=1;jettySize=auto;html=1;entryX=0;entryY=0.5;entryDx=0;entryDy=0;exitX=1;exitY=0.3333333333333333;exitDx=0;exitDy=0;exitPerimeter=0;" parent="1" source="sfpBSsKrv9r2uao3jg4c-490" target="sfpBSsKrv9r2uao3jg4c-494" edge="1">
          <mxGeometry relative="1" as="geometry" />
        </mxCell>
        <mxCell id="sfpBSsKrv9r2uao3jg4c-486" style="rounded=0;orthogonalLoop=1;jettySize=auto;html=1;entryX=0;entryY=0.5;entryDx=0;entryDy=0;exitX=1;exitY=0.3333333333333333;exitDx=0;exitDy=0;exitPerimeter=0;" parent="1" source="sfpBSsKrv9r2uao3jg4c-490" target="sfpBSsKrv9r2uao3jg4c-495" edge="1">
          <mxGeometry relative="1" as="geometry" />
        </mxCell>
        <mxCell id="sfpBSsKrv9r2uao3jg4c-487" style="rounded=0;orthogonalLoop=1;jettySize=auto;html=1;entryX=0;entryY=0.5;entryDx=0;entryDy=0;exitX=1;exitY=0.3333333333333333;exitDx=0;exitDy=0;exitPerimeter=0;" parent="1" source="sfpBSsKrv9r2uao3jg4c-490" target="sfpBSsKrv9r2uao3jg4c-496" edge="1">
          <mxGeometry relative="1" as="geometry" />
        </mxCell>
        <mxCell id="sfpBSsKrv9r2uao3jg4c-488" style="rounded=0;orthogonalLoop=1;jettySize=auto;html=1;entryX=0;entryY=0.5;entryDx=0;entryDy=0;exitX=1;exitY=0.3333333333333333;exitDx=0;exitDy=0;exitPerimeter=0;" parent="1" source="sfpBSsKrv9r2uao3jg4c-490" target="sfpBSsKrv9r2uao3jg4c-501" edge="1">
          <mxGeometry relative="1" as="geometry" />
        </mxCell>
        <mxCell id="sfpBSsKrv9r2uao3jg4c-489" style="rounded=0;orthogonalLoop=1;jettySize=auto;html=1;entryX=0;entryY=0.5;entryDx=0;entryDy=0;exitX=1;exitY=0.3333333333333333;exitDx=0;exitDy=0;exitPerimeter=0;" parent="1" source="sfpBSsKrv9r2uao3jg4c-490" target="sfpBSsKrv9r2uao3jg4c-502" edge="1">
          <mxGeometry relative="1" as="geometry" />
        </mxCell>
        <mxCell id="sfpBSsKrv9r2uao3jg4c-533" style="rounded=0;orthogonalLoop=1;jettySize=auto;html=1;entryX=0;entryY=0.5;entryDx=0;entryDy=0;exitX=1;exitY=0.3333333333333333;exitDx=0;exitDy=0;exitPerimeter=0;" parent="1" source="sfpBSsKrv9r2uao3jg4c-490" target="sfpBSsKrv9r2uao3jg4c-518" edge="1">
          <mxGeometry relative="1" as="geometry" />
        </mxCell>
        <mxCell id="sfpBSsKrv9r2uao3jg4c-535" style="rounded=0;orthogonalLoop=1;jettySize=auto;html=1;exitX=1;exitY=0.3333333333333333;exitDx=0;exitDy=0;exitPerimeter=0;entryX=0;entryY=0.5;entryDx=0;entryDy=0;" parent="1" source="sfpBSsKrv9r2uao3jg4c-490" target="sfpBSsKrv9r2uao3jg4c-521" edge="1">
          <mxGeometry relative="1" as="geometry" />
        </mxCell>
        <mxCell id="sfpBSsKrv9r2uao3jg4c-490" value="Участник" style="shape=umlActor;verticalLabelPosition=bottom;verticalAlign=top;html=1;outlineConnect=0;" parent="1" vertex="1">
          <mxGeometry x="350" y="995" width="30" height="60" as="geometry" />
        </mxCell>
        <mxCell id="sfpBSsKrv9r2uao3jg4c-491" value="Аутентификация" style="ellipse;whiteSpace=wrap;html=1;" parent="1" vertex="1">
          <mxGeometry x="535" y="720" width="165" height="50" as="geometry" />
        </mxCell>
        <mxCell id="sfpBSsKrv9r2uao3jg4c-492" value="Авторизация" style="ellipse;whiteSpace=wrap;html=1;" parent="1" vertex="1">
          <mxGeometry x="535" y="790" width="165" height="50" as="geometry" />
        </mxCell>
        <mxCell id="sfpBSsKrv9r2uao3jg4c-493" value="Присоединение&amp;nbsp;&lt;div&gt;к игре&lt;/div&gt;" style="ellipse;whiteSpace=wrap;html=1;" parent="1" vertex="1">
          <mxGeometry x="535" y="860" width="165" height="50" as="geometry" />
        </mxCell>
        <mxCell id="sfpBSsKrv9r2uao3jg4c-494" value="Просмотр статистики" style="ellipse;whiteSpace=wrap;html=1;" parent="1" vertex="1">
          <mxGeometry x="535" y="930" width="165" height="50" as="geometry" />
        </mxCell>
        <mxCell id="sfpBSsKrv9r2uao3jg4c-495" value="Просмотр рейтингов&lt;div&gt;других игроков&lt;/div&gt;" style="ellipse;whiteSpace=wrap;html=1;" parent="1" vertex="1">
          <mxGeometry x="535" y="1000" width="165" height="50" as="geometry" />
        </mxCell>
        <mxCell id="sfpBSsKrv9r2uao3jg4c-496" value="Управление&lt;div&gt;профилем&lt;/div&gt;" style="ellipse;whiteSpace=wrap;html=1;" parent="1" vertex="1">
          <mxGeometry x="535" y="1140" width="165" height="50" as="geometry" />
        </mxCell>
        <mxCell id="sfpBSsKrv9r2uao3jg4c-500" value="Регистрация" style="ellipse;whiteSpace=wrap;html=1;" parent="1" vertex="1">
          <mxGeometry x="535" y="1430" width="165" height="50" as="geometry" />
        </mxCell>
        <mxCell id="sfpBSsKrv9r2uao3jg4c-501" value="Возможность комментирования игр" style="ellipse;whiteSpace=wrap;html=1;" parent="1" vertex="1">
          <mxGeometry x="535" y="1070" width="165" height="50" as="geometry" />
        </mxCell>
        <mxCell id="sfpBSsKrv9r2uao3jg4c-502" value="Возможность отправки приглашения в игру" style="ellipse;whiteSpace=wrap;html=1;" parent="1" vertex="1">
          <mxGeometry x="535" y="1210" width="165" height="50" as="geometry" />
        </mxCell>
        <mxCell id="sfpBSsKrv9r2uao3jg4c-537" style="rounded=0;orthogonalLoop=1;jettySize=auto;html=1;exitX=0;exitY=0.3333333333333333;exitDx=0;exitDy=0;exitPerimeter=0;entryX=1;entryY=0.5;entryDx=0;entryDy=0;" parent="1" source="sfpBSsKrv9r2uao3jg4c-504" target="sfpBSsKrv9r2uao3jg4c-507" edge="1">
          <mxGeometry relative="1" as="geometry" />
        </mxCell>
        <mxCell id="sfpBSsKrv9r2uao3jg4c-538" style="rounded=0;orthogonalLoop=1;jettySize=auto;html=1;exitX=0;exitY=0.3333333333333333;exitDx=0;exitDy=0;exitPerimeter=0;entryX=1;entryY=0.5;entryDx=0;entryDy=0;" parent="1" source="sfpBSsKrv9r2uao3jg4c-504" target="sfpBSsKrv9r2uao3jg4c-508" edge="1">
          <mxGeometry relative="1" as="geometry" />
        </mxCell>
        <mxCell id="sfpBSsKrv9r2uao3jg4c-539" style="rounded=0;orthogonalLoop=1;jettySize=auto;html=1;exitX=0;exitY=0.3333333333333333;exitDx=0;exitDy=0;exitPerimeter=0;entryX=1;entryY=0.5;entryDx=0;entryDy=0;" parent="1" source="sfpBSsKrv9r2uao3jg4c-504" target="sfpBSsKrv9r2uao3jg4c-509" edge="1">
          <mxGeometry relative="1" as="geometry" />
        </mxCell>
        <mxCell id="sfpBSsKrv9r2uao3jg4c-540" style="rounded=0;orthogonalLoop=1;jettySize=auto;html=1;exitX=0;exitY=0.3333333333333333;exitDx=0;exitDy=0;exitPerimeter=0;entryX=1;entryY=0.5;entryDx=0;entryDy=0;" parent="1" source="sfpBSsKrv9r2uao3jg4c-504" target="sfpBSsKrv9r2uao3jg4c-510" edge="1">
          <mxGeometry relative="1" as="geometry" />
        </mxCell>
        <mxCell id="sfpBSsKrv9r2uao3jg4c-541" style="rounded=0;orthogonalLoop=1;jettySize=auto;html=1;exitX=0;exitY=0.3333333333333333;exitDx=0;exitDy=0;exitPerimeter=0;entryX=1;entryY=0.5;entryDx=0;entryDy=0;" parent="1" source="sfpBSsKrv9r2uao3jg4c-504" target="sfpBSsKrv9r2uao3jg4c-511" edge="1">
          <mxGeometry relative="1" as="geometry" />
        </mxCell>
        <mxCell id="sfpBSsKrv9r2uao3jg4c-542" style="rounded=0;orthogonalLoop=1;jettySize=auto;html=1;exitX=0;exitY=0.3333333333333333;exitDx=0;exitDy=0;exitPerimeter=0;entryX=1;entryY=0.5;entryDx=0;entryDy=0;" parent="1" source="sfpBSsKrv9r2uao3jg4c-504" target="sfpBSsKrv9r2uao3jg4c-513" edge="1">
          <mxGeometry relative="1" as="geometry" />
        </mxCell>
        <mxCell id="sfpBSsKrv9r2uao3jg4c-543" style="rounded=0;orthogonalLoop=1;jettySize=auto;html=1;exitX=0;exitY=0.3333333333333333;exitDx=0;exitDy=0;exitPerimeter=0;entryX=1;entryY=0.5;entryDx=0;entryDy=0;" parent="1" source="sfpBSsKrv9r2uao3jg4c-504" target="sfpBSsKrv9r2uao3jg4c-514" edge="1">
          <mxGeometry relative="1" as="geometry" />
        </mxCell>
        <mxCell id="sfpBSsKrv9r2uao3jg4c-544" style="rounded=0;orthogonalLoop=1;jettySize=auto;html=1;exitX=0;exitY=0.3333333333333333;exitDx=0;exitDy=0;exitPerimeter=0;entryX=1;entryY=0.5;entryDx=0;entryDy=0;" parent="1" source="sfpBSsKrv9r2uao3jg4c-504" target="sfpBSsKrv9r2uao3jg4c-515" edge="1">
          <mxGeometry relative="1" as="geometry" />
        </mxCell>
        <mxCell id="sfpBSsKrv9r2uao3jg4c-549" style="rounded=0;orthogonalLoop=1;jettySize=auto;html=1;exitX=0;exitY=0.3333333333333333;exitDx=0;exitDy=0;exitPerimeter=0;entryX=1;entryY=0.5;entryDx=0;entryDy=0;" parent="1" source="sfpBSsKrv9r2uao3jg4c-504" target="sfpBSsKrv9r2uao3jg4c-547" edge="1">
          <mxGeometry relative="1" as="geometry" />
        </mxCell>
        <mxCell id="sfpBSsKrv9r2uao3jg4c-504" value="Администратор" style="shape=umlActor;verticalLabelPosition=bottom;verticalAlign=top;html=1;outlineConnect=0;" parent="1" vertex="1">
          <mxGeometry x="1420" y="1240" width="30" height="60" as="geometry" />
        </mxCell>
        <mxCell id="sfpBSsKrv9r2uao3jg4c-507" value="Добавление&lt;div&gt;участников&lt;/div&gt;" style="ellipse;whiteSpace=wrap;html=1;" parent="1" vertex="1">
          <mxGeometry x="1100" y="1070" width="165" height="50" as="geometry" />
        </mxCell>
        <mxCell id="sfpBSsKrv9r2uao3jg4c-508" value="Добавление&amp;nbsp;&lt;div&gt;организаторов&lt;/div&gt;" style="ellipse;whiteSpace=wrap;html=1;" parent="1" vertex="1">
          <mxGeometry x="1100" y="1130" width="165" height="50" as="geometry" />
        </mxCell>
        <mxCell id="sfpBSsKrv9r2uao3jg4c-509" value="Редактирование&lt;div&gt;пользователей&lt;/div&gt;" style="ellipse;whiteSpace=wrap;html=1;" parent="1" vertex="1">
          <mxGeometry x="1100" y="1190" width="165" height="50" as="geometry" />
        </mxCell>
        <mxCell id="sfpBSsKrv9r2uao3jg4c-510" value="Добавление&lt;div&gt;пользователей&lt;/div&gt;" style="ellipse;whiteSpace=wrap;html=1;" parent="1" vertex="1">
          <mxGeometry x="1100" y="1250" width="165" height="50" as="geometry" />
        </mxCell>
        <mxCell id="sfpBSsKrv9r2uao3jg4c-511" value="&lt;div&gt;Удаление&lt;/div&gt;&lt;div&gt;пользователей&lt;/div&gt;" style="ellipse;whiteSpace=wrap;html=1;" parent="1" vertex="1">
          <mxGeometry x="1100" y="1310" width="165" height="50" as="geometry" />
        </mxCell>
        <mxCell id="sfpBSsKrv9r2uao3jg4c-513" value="&lt;div&gt;Установка правил игр&lt;/div&gt;" style="ellipse;whiteSpace=wrap;html=1;" parent="1" vertex="1">
          <mxGeometry x="1100" y="1370" width="165" height="50" as="geometry" />
        </mxCell>
        <mxCell id="sfpBSsKrv9r2uao3jg4c-514" value="&lt;div&gt;Изменение правил игр&lt;/div&gt;" style="ellipse;whiteSpace=wrap;html=1;" parent="1" vertex="1">
          <mxGeometry x="1100" y="1430" width="165" height="50" as="geometry" />
        </mxCell>
        <mxCell id="sfpBSsKrv9r2uao3jg4c-515" value="&lt;div&gt;Изменение правил игр&lt;/div&gt;" style="ellipse;whiteSpace=wrap;html=1;" parent="1" vertex="1">
          <mxGeometry x="1100" y="1490" width="165" height="50" as="geometry" />
        </mxCell>
        <mxCell id="sfpBSsKrv9r2uao3jg4c-516" value="Организатор" style="shape=umlActor;verticalLabelPosition=bottom;verticalAlign=top;html=1;outlineConnect=0;" parent="1" vertex="1">
          <mxGeometry x="1410" y="950" width="30" height="60" as="geometry" />
        </mxCell>
        <mxCell id="sfpBSsKrv9r2uao3jg4c-518" value="Просмотр доступных игр" style="ellipse;whiteSpace=wrap;html=1;" parent="1" vertex="1">
          <mxGeometry x="535" y="1280" width="165" height="50" as="geometry" />
        </mxCell>
        <mxCell id="sfpBSsKrv9r2uao3jg4c-520" value="Отключение от игры" style="ellipse;whiteSpace=wrap;html=1;" parent="1" vertex="1">
          <mxGeometry x="850" y="880" width="165" height="50" as="geometry" />
        </mxCell>
        <mxCell id="sfpBSsKrv9r2uao3jg4c-521" value="Оставление отзывов" style="ellipse;whiteSpace=wrap;html=1;" parent="1" vertex="1">
          <mxGeometry x="535" y="1360" width="165" height="50" as="geometry" />
        </mxCell>
        <mxCell id="sfpBSsKrv9r2uao3jg4c-524" value="Создание игр" style="ellipse;whiteSpace=wrap;html=1;" parent="1" vertex="1">
          <mxGeometry x="1100" y="790" width="165" height="50" as="geometry" />
        </mxCell>
        <mxCell id="sfpBSsKrv9r2uao3jg4c-527" value="Изменение игр" style="ellipse;whiteSpace=wrap;html=1;" parent="1" vertex="1">
          <mxGeometry x="1100" y="860" width="165" height="50" as="geometry" />
        </mxCell>
        <mxCell id="sfpBSsKrv9r2uao3jg4c-529" value="Управление списком&lt;div&gt;участников&lt;/div&gt;" style="ellipse;whiteSpace=wrap;html=1;" parent="1" vertex="1">
          <mxGeometry x="1100" y="650" width="165" height="50" as="geometry" />
        </mxCell>
        <mxCell id="sfpBSsKrv9r2uao3jg4c-532" value="" style="rounded=0;orthogonalLoop=1;jettySize=auto;html=1;entryX=1;entryY=0.5;entryDx=0;entryDy=0;" parent="1" target="sfpBSsKrv9r2uao3jg4c-528" edge="1">
          <mxGeometry relative="1" as="geometry">
            <mxPoint x="1410" y="970" as="sourcePoint" />
            <mxPoint x="1260" y="955" as="targetPoint" />
          </mxGeometry>
        </mxCell>
        <mxCell id="sfpBSsKrv9r2uao3jg4c-528" value="Удаление игр" style="ellipse;whiteSpace=wrap;html=1;" parent="1" vertex="1">
          <mxGeometry x="1100" y="930" width="165" height="50" as="geometry" />
        </mxCell>
        <mxCell id="sfpBSsKrv9r2uao3jg4c-545" value="Выход" style="ellipse;whiteSpace=wrap;html=1;" parent="1" vertex="1">
          <mxGeometry x="1100" y="720" width="165" height="50" as="geometry" />
        </mxCell>
        <mxCell id="sfpBSsKrv9r2uao3jg4c-546" value="Выход" style="ellipse;whiteSpace=wrap;html=1;" parent="1" vertex="1">
          <mxGeometry x="535" y="650" width="165" height="50" as="geometry" />
        </mxCell>
        <mxCell id="sfpBSsKrv9r2uao3jg4c-547" value="Выход" style="ellipse;whiteSpace=wrap;html=1;" parent="1" vertex="1">
          <mxGeometry x="1100" y="1550" width="165" height="50" as="geometry" />
        </mxCell>
        <mxCell id="sfpBSsKrv9r2uao3jg4c-550" value="Авторизация" style="ellipse;whiteSpace=wrap;html=1;" parent="1" vertex="1">
          <mxGeometry x="535" y="1530" width="165" height="50" as="geometry" />
        </mxCell>
        <mxCell id="sfpBSsKrv9r2uao3jg4c-551" style="rounded=0;orthogonalLoop=1;jettySize=auto;html=1;entryX=0.473;entryY=-0.008;entryDx=0;entryDy=0;entryPerimeter=0;dashed=1;" parent="1" source="sfpBSsKrv9r2uao3jg4c-500" target="sfpBSsKrv9r2uao3jg4c-550" edge="1">
          <mxGeometry relative="1" as="geometry" />
        </mxCell>
        <mxCell id="sfpBSsKrv9r2uao3jg4c-552" value="&amp;lt;&amp;lt;extend&amp;gt;&amp;gt;" style="edgeLabel;html=1;align=center;verticalAlign=middle;resizable=0;points=[];" parent="sfpBSsKrv9r2uao3jg4c-551" vertex="1" connectable="0">
          <mxGeometry x="-0.0619" relative="1" as="geometry">
            <mxPoint as="offset" />
          </mxGeometry>
        </mxCell>
        <mxCell id="sfpBSsKrv9r2uao3jg4c-558" style="rounded=0;orthogonalLoop=1;jettySize=auto;html=1;entryX=1;entryY=0.5;entryDx=0;entryDy=0;dashed=1;" parent="1" source="sfpBSsKrv9r2uao3jg4c-553" target="sfpBSsKrv9r2uao3jg4c-496" edge="1">
          <mxGeometry relative="1" as="geometry" />
        </mxCell>
        <mxCell id="sfpBSsKrv9r2uao3jg4c-559" value="&lt;span style=&quot;color: rgba(0, 0, 0, 0); font-family: monospace; font-size: 0px; text-align: start; background-color: rgb(251, 251, 251);&quot;&gt;%3CmxGraphModel%3E%3Croot%3E%3CmxCell%20id%3D%220%22%2F%3E%3CmxCell%20id%3D%221%22%20parent%3D%220%22%2F%3E%3CmxCell%20id%3D%222%22%20value%3D%22%D0%A3%D0%BF%D1%80%D0%B0%D0%B2%D0%BB%D0%B5%D0%BD%D0%B8%D0%B5%26lt%3Bdiv%26gt%3B%D0%BF%D1%80%D0%BE%D1%84%D0%B8%D0%BB%D0%B5%D0%BC%26lt%3B%2Fdiv%26gt%3B%22%20style%3D%22ellipse%3BwhiteSpace%3Dwrap%3Bhtml%3D1%3B%22%20vertex%3D%221%22%20parent%3D%221%22%3E%3CmxGeometry%20x%3D%22535%22%20y%3D%221140%22%20width%3D%22165%22%20height%3D%2250%22%20as%3D%22geometry%22%2F%3E%3C%2FmxCell%3E%3C%2Froot%3E%3C%2FmxGraphModel%3E&lt;/span&gt;&amp;lt;&amp;lt;extend&amp;gt;&amp;gt;" style="edgeLabel;html=1;align=center;verticalAlign=middle;resizable=0;points=[];" parent="sfpBSsKrv9r2uao3jg4c-558" vertex="1" connectable="0">
          <mxGeometry x="-0.0665" y="1" relative="1" as="geometry">
            <mxPoint as="offset" />
          </mxGeometry>
        </mxCell>
        <mxCell id="sfpBSsKrv9r2uao3jg4c-553" value="Изменить имя" style="ellipse;whiteSpace=wrap;html=1;" parent="1" vertex="1">
          <mxGeometry x="850" y="1090" width="165" height="50" as="geometry" />
        </mxCell>
        <mxCell id="sfpBSsKrv9r2uao3jg4c-554" value="Изменить фамилию" style="ellipse;whiteSpace=wrap;html=1;" parent="1" vertex="1">
          <mxGeometry x="850" y="1160" width="165" height="50" as="geometry" />
        </mxCell>
        <mxCell id="sfpBSsKrv9r2uao3jg4c-555" value="Изменить Email" style="ellipse;whiteSpace=wrap;html=1;" parent="1" vertex="1">
          <mxGeometry x="850" y="1230" width="165" height="50" as="geometry" />
        </mxCell>
        <mxCell id="sfpBSsKrv9r2uao3jg4c-556" value="Изменить пароль" style="ellipse;whiteSpace=wrap;html=1;" parent="1" vertex="1">
          <mxGeometry x="850" y="1300" width="165" height="50" as="geometry" />
        </mxCell>
        <mxCell id="sfpBSsKrv9r2uao3jg4c-557" value="Изменить фото профиля" style="ellipse;whiteSpace=wrap;html=1;" parent="1" vertex="1">
          <mxGeometry x="850" y="1370" width="165" height="50" as="geometry" />
        </mxCell>
        <mxCell id="sfpBSsKrv9r2uao3jg4c-560" style="rounded=0;orthogonalLoop=1;jettySize=auto;html=1;entryX=1;entryY=0.5;entryDx=0;entryDy=0;dashed=1;exitX=0;exitY=0.5;exitDx=0;exitDy=0;" parent="1" source="sfpBSsKrv9r2uao3jg4c-554" target="sfpBSsKrv9r2uao3jg4c-496" edge="1">
          <mxGeometry relative="1" as="geometry">
            <mxPoint x="860" y="1155" as="sourcePoint" />
            <mxPoint x="710" y="1175" as="targetPoint" />
          </mxGeometry>
        </mxCell>
        <mxCell id="sfpBSsKrv9r2uao3jg4c-561" value="&lt;span style=&quot;color: rgba(0, 0, 0, 0); font-family: monospace; font-size: 0px; text-align: start; background-color: rgb(251, 251, 251);&quot;&gt;%3CmxGraphModel%3E%3Croot%3E%3CmxCell%20id%3D%220%22%2F%3E%3CmxCell%20id%3D%221%22%20parent%3D%220%22%2F%3E%3CmxCell%20id%3D%222%22%20value%3D%22%D0%A3%D0%BF%D1%80%D0%B0%D0%B2%D0%BB%D0%B5%D0%BD%D0%B8%D0%B5%26lt%3Bdiv%26gt%3B%D0%BF%D1%80%D0%BE%D1%84%D0%B8%D0%BB%D0%B5%D0%BC%26lt%3B%2Fdiv%26gt%3B%22%20style%3D%22ellipse%3BwhiteSpace%3Dwrap%3Bhtml%3D1%3B%22%20vertex%3D%221%22%20parent%3D%221%22%3E%3CmxGeometry%20x%3D%22535%22%20y%3D%221140%22%20width%3D%22165%22%20height%3D%2250%22%20as%3D%22geometry%22%2F%3E%3C%2FmxCell%3E%3C%2Froot%3E%3C%2FmxGraphModel%3E&lt;/span&gt;&amp;lt;&amp;lt;extend&amp;gt;&amp;gt;" style="edgeLabel;html=1;align=center;verticalAlign=middle;resizable=0;points=[];" parent="sfpBSsKrv9r2uao3jg4c-560" vertex="1" connectable="0">
          <mxGeometry x="-0.0665" y="1" relative="1" as="geometry">
            <mxPoint as="offset" />
          </mxGeometry>
        </mxCell>
        <mxCell id="sfpBSsKrv9r2uao3jg4c-562" style="rounded=0;orthogonalLoop=1;jettySize=auto;html=1;dashed=1;exitX=0;exitY=0.5;exitDx=0;exitDy=0;entryX=1;entryY=0.5;entryDx=0;entryDy=0;" parent="1" source="sfpBSsKrv9r2uao3jg4c-555" target="sfpBSsKrv9r2uao3jg4c-496" edge="1">
          <mxGeometry relative="1" as="geometry">
            <mxPoint x="860" y="1215" as="sourcePoint" />
            <mxPoint x="700" y="1170" as="targetPoint" />
          </mxGeometry>
        </mxCell>
        <mxCell id="sfpBSsKrv9r2uao3jg4c-563" value="&lt;span style=&quot;color: rgba(0, 0, 0, 0); font-family: monospace; font-size: 0px; text-align: start; background-color: rgb(251, 251, 251);&quot;&gt;%3CmxGraphModel%3E%3Croot%3E%3CmxCell%20id%3D%220%22%2F%3E%3CmxCell%20id%3D%221%22%20parent%3D%220%22%2F%3E%3CmxCell%20id%3D%222%22%20value%3D%22%D0%A3%D0%BF%D1%80%D0%B0%D0%B2%D0%BB%D0%B5%D0%BD%D0%B8%D0%B5%26lt%3Bdiv%26gt%3B%D0%BF%D1%80%D0%BE%D1%84%D0%B8%D0%BB%D0%B5%D0%BC%26lt%3B%2Fdiv%26gt%3B%22%20style%3D%22ellipse%3BwhiteSpace%3Dwrap%3Bhtml%3D1%3B%22%20vertex%3D%221%22%20parent%3D%221%22%3E%3CmxGeometry%20x%3D%22535%22%20y%3D%221140%22%20width%3D%22165%22%20height%3D%2250%22%20as%3D%22geometry%22%2F%3E%3C%2FmxCell%3E%3C%2Froot%3E%3C%2FmxGraphModel%3E&lt;/span&gt;&amp;lt;&amp;lt;extend&amp;gt;&amp;gt;" style="edgeLabel;html=1;align=center;verticalAlign=middle;resizable=0;points=[];" parent="sfpBSsKrv9r2uao3jg4c-562" vertex="1" connectable="0">
          <mxGeometry x="-0.0665" y="1" relative="1" as="geometry">
            <mxPoint as="offset" />
          </mxGeometry>
        </mxCell>
        <mxCell id="sfpBSsKrv9r2uao3jg4c-564" style="rounded=0;orthogonalLoop=1;jettySize=auto;html=1;dashed=1;exitX=0;exitY=0.5;exitDx=0;exitDy=0;entryX=1;entryY=0.5;entryDx=0;entryDy=0;" parent="1" source="sfpBSsKrv9r2uao3jg4c-556" target="sfpBSsKrv9r2uao3jg4c-496" edge="1">
          <mxGeometry relative="1" as="geometry">
            <mxPoint x="870.0000000000009" y="1340" as="sourcePoint" />
            <mxPoint x="730" y="1190" as="targetPoint" />
          </mxGeometry>
        </mxCell>
        <mxCell id="sfpBSsKrv9r2uao3jg4c-565" value="&lt;span style=&quot;color: rgba(0, 0, 0, 0); font-family: monospace; font-size: 0px; text-align: start; background-color: rgb(251, 251, 251);&quot;&gt;%3CmxGraphModel%3E%3Croot%3E%3CmxCell%20id%3D%220%22%2F%3E%3CmxCell%20id%3D%221%22%20parent%3D%220%22%2F%3E%3CmxCell%20id%3D%222%22%20value%3D%22%D0%A3%D0%BF%D1%80%D0%B0%D0%B2%D0%BB%D0%B5%D0%BD%D0%B8%D0%B5%26lt%3Bdiv%26gt%3B%D0%BF%D1%80%D0%BE%D1%84%D0%B8%D0%BB%D0%B5%D0%BC%26lt%3B%2Fdiv%26gt%3B%22%20style%3D%22ellipse%3BwhiteSpace%3Dwrap%3Bhtml%3D1%3B%22%20vertex%3D%221%22%20parent%3D%221%22%3E%3CmxGeometry%20x%3D%22535%22%20y%3D%221140%22%20width%3D%22165%22%20height%3D%2250%22%20as%3D%22geometry%22%2F%3E%3C%2FmxCell%3E%3C%2Froot%3E%3C%2FmxGraphModel%3E&lt;/span&gt;&amp;lt;&amp;lt;extend&amp;gt;&amp;gt;" style="edgeLabel;html=1;align=center;verticalAlign=middle;resizable=0;points=[];" parent="sfpBSsKrv9r2uao3jg4c-564" vertex="1" connectable="0">
          <mxGeometry x="-0.0665" y="1" relative="1" as="geometry">
            <mxPoint as="offset" />
          </mxGeometry>
        </mxCell>
        <mxCell id="sfpBSsKrv9r2uao3jg4c-566" style="rounded=0;orthogonalLoop=1;jettySize=auto;html=1;dashed=1;exitX=0;exitY=0.5;exitDx=0;exitDy=0;entryX=1;entryY=0.5;entryDx=0;entryDy=0;" parent="1" source="sfpBSsKrv9r2uao3jg4c-557" target="sfpBSsKrv9r2uao3jg4c-496" edge="1">
          <mxGeometry relative="1" as="geometry">
            <mxPoint x="860" y="1335" as="sourcePoint" />
            <mxPoint x="710" y="1175" as="targetPoint" />
          </mxGeometry>
        </mxCell>
        <mxCell id="sfpBSsKrv9r2uao3jg4c-567" value="&lt;span style=&quot;color: rgba(0, 0, 0, 0); font-family: monospace; font-size: 0px; text-align: start; background-color: rgb(251, 251, 251);&quot;&gt;%3CmxGraphModel%3E%3Croot%3E%3CmxCell%20id%3D%220%22%2F%3E%3CmxCell%20id%3D%221%22%20parent%3D%220%22%2F%3E%3CmxCell%20id%3D%222%22%20value%3D%22%D0%A3%D0%BF%D1%80%D0%B0%D0%B2%D0%BB%D0%B5%D0%BD%D0%B8%D0%B5%26lt%3Bdiv%26gt%3B%D0%BF%D1%80%D0%BE%D1%84%D0%B8%D0%BB%D0%B5%D0%BC%26lt%3B%2Fdiv%26gt%3B%22%20style%3D%22ellipse%3BwhiteSpace%3Dwrap%3Bhtml%3D1%3B%22%20vertex%3D%221%22%20parent%3D%221%22%3E%3CmxGeometry%20x%3D%22535%22%20y%3D%221140%22%20width%3D%22165%22%20height%3D%2250%22%20as%3D%22geometry%22%2F%3E%3C%2FmxCell%3E%3C%2Froot%3E%3C%2FmxGraphModel%3E&lt;/span&gt;&amp;lt;&amp;lt;extend&amp;gt;&amp;gt;" style="edgeLabel;html=1;align=center;verticalAlign=middle;resizable=0;points=[];" parent="sfpBSsKrv9r2uao3jg4c-566" vertex="1" connectable="0">
          <mxGeometry x="-0.0665" y="1" relative="1" as="geometry">
            <mxPoint as="offset" />
          </mxGeometry>
        </mxCell>
        <mxCell id="sfpBSsKrv9r2uao3jg4c-568" style="rounded=0;orthogonalLoop=1;jettySize=auto;html=1;entryX=0;entryY=0.5;entryDx=0;entryDy=0;dashed=1;exitX=1;exitY=0.5;exitDx=0;exitDy=0;" parent="1" source="sfpBSsKrv9r2uao3jg4c-493" target="sfpBSsKrv9r2uao3jg4c-520" edge="1">
          <mxGeometry relative="1" as="geometry">
            <mxPoint x="863" y="1162" as="sourcePoint" />
            <mxPoint x="710" y="1175" as="targetPoint" />
          </mxGeometry>
        </mxCell>
        <mxCell id="sfpBSsKrv9r2uao3jg4c-569" value="&lt;span style=&quot;color: rgba(0, 0, 0, 0); font-family: monospace; font-size: 0px; text-align: start; background-color: rgb(251, 251, 251);&quot;&gt;%3CmxGraphModel%3E%3Croot%3E%3CmxCell%20id%3D%220%22%2F%3E%3CmxCell%20id%3D%221%22%20parent%3D%220%22%2F%3E%3CmxCell%20id%3D%222%22%20value%3D%22%D0%A3%D0%BF%D1%80%D0%B0%D0%B2%D0%BB%D0%B5%D0%BD%D0%B8%D0%B5%26lt%3Bdiv%26gt%3B%D0%BF%D1%80%D0%BE%D1%84%D0%B8%D0%BB%D0%B5%D0%BC%26lt%3B%2Fdiv%26gt%3B%22%20style%3D%22ellipse%3BwhiteSpace%3Dwrap%3Bhtml%3D1%3B%22%20vertex%3D%221%22%20parent%3D%221%22%3E%3CmxGeometry%20x%3D%22535%22%20y%3D%221140%22%20width%3D%22165%22%20height%3D%2250%22%20as%3D%22geometry%22%2F%3E%3C%2FmxCell%3E%3C%2Froot%3E%3C%2FmxGraphModel%3E&lt;/span&gt;&amp;lt;&amp;lt;include&amp;gt;&amp;gt;" style="edgeLabel;html=1;align=center;verticalAlign=middle;resizable=0;points=[];" parent="sfpBSsKrv9r2uao3jg4c-568" vertex="1" connectable="0">
          <mxGeometry x="-0.0665" y="1" relative="1" as="geometry">
            <mxPoint as="offset" />
          </mxGeometry>
        </mxCell>
        <mxCell id="kopbr6QDrfiYOSxPrdpd-1" style="rounded=0;orthogonalLoop=1;jettySize=auto;html=1;entryX=0;entryY=0.5;entryDx=0;entryDy=0;" edge="1" parent="1" target="sfpBSsKrv9r2uao3jg4c-550">
          <mxGeometry relative="1" as="geometry">
            <mxPoint x="380" y="1510" as="sourcePoint" />
            <mxPoint x="380" y="1378" as="targetPoint" />
          </mxGeometry>
        </mxCell>
        <mxCell id="kopbr6QDrfiYOSxPrdpd-2" style="rounded=0;orthogonalLoop=1;jettySize=auto;html=1;entryX=0;entryY=0.5;entryDx=0;entryDy=0;exitX=1;exitY=0.3333333333333333;exitDx=0;exitDy=0;exitPerimeter=0;" edge="1" parent="1" source="sfpBSsKrv9r2uao3jg4c-490" target="sfpBSsKrv9r2uao3jg4c-546">
          <mxGeometry relative="1" as="geometry">
            <mxPoint x="390" y="1010" as="sourcePoint" />
            <mxPoint x="545" y="755" as="targetPoint" />
          </mxGeometry>
        </mxCell>
        <mxCell id="kopbr6QDrfiYOSxPrdpd-3" style="rounded=0;orthogonalLoop=1;jettySize=auto;html=1;entryX=1;entryY=0.5;entryDx=0;entryDy=0;" edge="1" parent="1" target="sfpBSsKrv9r2uao3jg4c-545">
          <mxGeometry relative="1" as="geometry">
            <mxPoint x="1410" y="970" as="sourcePoint" />
            <mxPoint x="1275" y="825" as="targetPoint" />
          </mxGeometry>
        </mxCell>
      </root>
    </mxGraphModel>
  </diagram>
</mxfile>
